<svg width="14" height="14" viewBox="0 0 14 14" fill="none" xmlns="http://www.w3.org/2000/svg">
<path d="M10.0224 0.799972C10.2298 0.585941 10.4777 0.415311 10.7516 0.298018C11.0256 0.180725 11.3202 0.119112 11.6182 0.116769C11.9163 0.114425 12.2118 0.171397 12.4876 0.284366C12.7634 0.397336 13.0139 0.564046 13.2247 0.774788C13.4354 0.985531 13.6021 1.2361 13.7151 1.51189C13.8281 1.78768 13.885 2.0832 13.8827 2.38123C13.8804 2.67925 13.8187 2.97383 13.7014 3.24782C13.5842 3.5218 13.4135 3.76971 13.1995 3.97711L12.3195 4.85711L9.14235 1.67997L10.0224 0.799972ZM8.53664 2.28569L1.57264 9.24969C1.32121 9.50111 1.13835 9.81312 1.04235 10.156L0.158352 13.3131C0.137927 13.3863 0.137327 13.4636 0.156613 13.5371C0.175898 13.6106 0.214376 13.6776 0.268104 13.7314C0.321831 13.7851 0.388877 13.8236 0.462372 13.8429C0.535866 13.8621 0.613166 13.8615 0.686352 13.8411L3.84292 12.9571C4.18601 12.8618 4.49848 12.6791 4.74978 12.4268L11.7144 5.4634L8.53664 2.28569Z" fill="#4462DE"/>
</svg>
